<?xml version="1.0" encoding="UTF-8"?>
<svg id="_レイヤー_1" data-name="レイヤー_1" xmlns="http://www.w3.org/2000/svg" version="1.1" viewBox="0 0 1920 1080">
  <defs>
    <style>
      .st0 {
        fill: #fff;
      }

      .st1 {
        fill: #56abba;
      }

      .st2 {
        fill: #5a5858;
      }
    </style>
  </defs>
  <g>
    <path class="st2" d="M1072.5,721.9h-20.8c-7.8,0-14.2-6.4-14.2-14.2v-288.3c0-7.9-6.4-14.2-14.2-14.2h-87.6c-5.9,0-11.2-3.7-13.3-9.2l-9.7-25.7c-2.4-6.3,2.3-13.1,9.1-13.1h265.9c5.9,0,11.2,3.7,13.3,9.2l9.7,25.7c2.4,6.3-2.3,13.1-9.1,13.1h-100.7c-7.8,0-14.2,6.4-14.2,14.2v288.3c0,7.9-6.4,14.2-14.2,14.2"/>
    <path class="st2" d="M1306.9,357.2h-27.9c-6.8,0-11.5,6.8-9.1,13.1l129.7,342.5c2.1,5.5,7.4,9.2,13.3,9.2h27.9c6.8,0,11.5-6.8,9.1-13.1l-129.7-342.5c-2.1-5.5-7.4-9.2-13.3-9.2"/>
    <path class="st1" d="M1158.7,722h-27.8c-7,0-11.7-7.2-8.9-13.6l100.7-229.2c2.3-5.2,7.4-8.5,13-8.5h27.8c7,0,11.7,7.2,8.9,13.6l-100.7,229.2c-2.3,5.2-7.4,8.5-13,8.5"/>
    <path class="st2" d="M751.1,470.7h-28.2c-5.6,0-10.7,3.3-13,8.5l-73.6,167.5c-1.9,4.2-7.9,4.1-9.6-.3l-106-280.1c-2.1-5.5-7.4-9.2-13.3-9.2h-28.4c-6.8,0-11.5,6.8-9.1,13.1l129.7,342.5c2.1,5.5,7.4,9.2,13.3,9.2h33.5c5.6,0,10.8-3.3,13-8.5l100.5-229.2c2.8-6.4-1.9-13.6-8.9-13.6"/>
    <path class="st2" d="M933.2,479.2l-31.4,71.5c-1.7,4-7.3,4.2-9.3.3l-96.9-186.2c-2.4-4.7-7.3-7.7-12.6-7.7h-27.1c-7.3,0-12,7.7-8.6,14.2l123.3,237.1c2,3.8,2.1,8.3.4,12.3l-38.5,87.7c-2.8,6.4,1.9,13.6,8.9,13.6h27.9c5.6,0,10.7-3.3,13-8.5l100.7-229.2c2.8-6.4-1.9-13.6-8.9-13.6h-27.9c-5.6,0-10.7,3.3-13,8.5"/>
  </g>
  <g>
    <path class="st0" d="M1072.5,1919.9h-20.8c-7.8,0-14.2-6.4-14.2-14.2v-288.3c0-7.9-6.4-14.2-14.2-14.2h-87.6c-5.9,0-11.2-3.7-13.3-9.2l-9.7-25.7c-2.4-6.3,2.3-13.1,9.1-13.1h265.9c5.9,0,11.2,3.7,13.3,9.2l9.7,25.7c2.4,6.3-2.3,13.1-9.1,13.1h-100.7c-7.8,0-14.2,6.4-14.2,14.2v288.3c0,7.9-6.4,14.2-14.2,14.2"/>
    <path class="st0" d="M1306.9,1555.1h-27.9c-6.8,0-11.5,6.8-9.1,13.1l129.7,342.5c2.1,5.5,7.4,9.2,13.3,9.2h27.9c6.8,0,11.5-6.8,9.1-13.1l-129.7-342.5c-2.1-5.5-7.4-9.2-13.3-9.2"/>
    <path class="st0" d="M1158.7,1920h-27.8c-7,0-11.7-7.2-8.9-13.6l100.7-229.2c2.3-5.2,7.4-8.5,13-8.5h27.8c7,0,11.7,7.2,8.9,13.6l-100.7,229.2c-2.3,5.2-7.4,8.5-13,8.5"/>
    <path class="st0" d="M751.1,1668.7h-28.2c-5.6,0-10.7,3.3-13,8.5l-73.6,167.5c-1.9,4.2-7.9,4.1-9.6-.3l-106-280.1c-2.1-5.5-7.4-9.2-13.3-9.2h-28.4c-6.8,0-11.5,6.8-9.1,13.1l129.7,342.5c2.1,5.5,7.4,9.2,13.3,9.2h33.5c5.6,0,10.8-3.3,13-8.5l100.5-229.2c2.8-6.4-1.9-13.6-8.9-13.6"/>
    <path class="st0" d="M933.2,1677.2l-31.4,71.5c-1.7,4-7.3,4.2-9.3.3l-96.9-186.2c-2.4-4.7-7.3-7.7-12.6-7.7h-27.1c-7.3,0-12,7.7-8.6,14.2l123.3,237.1c2,3.8,2.1,8.3.4,12.3l-38.5,87.7c-2.8,6.4,1.9,13.6,8.9,13.6h27.9c5.6,0,10.7-3.3,13-8.5l100.7-229.2c2.8-6.4-1.9-13.6-8.9-13.6h-27.9c-5.6,0-10.7,3.3-13,8.5"/>
  </g>
</svg>