<svg xmlns="http://www.w3.org/2000/svg" width="377.659" height="176.064" viewBox="0 0 377.659 176.064">
  <g id="Group_5" data-name="Group 5" transform="translate(-692.102 -689.744)">
    <g id="Group_3" data-name="Group 3">
      <path id="Path_12" data-name="Path 12" d="M921.7,828.577h-7.92a5.412,5.412,0,0,1-5.412-5.411V713.434a5.411,5.411,0,0,0-5.411-5.411H869.616a5.411,5.411,0,0,1-5.061-3.495l-3.705-9.789a3.689,3.689,0,0,1,3.45-4.995H965.535a5.412,5.412,0,0,1,5.062,3.5l3.7,9.787a3.69,3.69,0,0,1-3.451,4.995H932.524a5.412,5.412,0,0,0-5.411,5.411V823.166A5.411,5.411,0,0,1,921.7,828.577Z" fill="#595757"/>
      <path id="Path_13" data-name="Path 13" d="M1010.942,689.744h-10.633a3.69,3.69,0,0,0-3.451,4.995l49.364,130.384a5.411,5.411,0,0,0,5.06,3.495h10.633a3.69,3.69,0,0,0,3.451-5L1016,693.239A5.412,5.412,0,0,0,1010.942,689.744Z" fill="#595757"/>
      <path id="Path_14" data-name="Path 14" d="M954.513,828.618H943.949a3.689,3.689,0,0,1-3.378-5.173L978.9,736.2a5.414,5.414,0,0,1,4.955-3.235h10.564a3.69,3.69,0,0,1,3.378,5.174l-38.326,87.244A5.41,5.41,0,0,1,954.513,828.618Z" fill="#58b3c4"/>
      <path id="Path_15" data-name="Path 15" d="M799.364,732.966h-10.74a5.411,5.411,0,0,0-4.954,3.235l-28,63.746a1.968,1.968,0,0,1-3.642-.1L711.661,693.239a5.41,5.41,0,0,0-5.061-3.495H695.794a3.689,3.689,0,0,0-3.45,4.995l49.363,130.384a5.412,5.412,0,0,0,5.061,3.495h12.769a5.411,5.411,0,0,0,4.956-3.238l38.25-87.243A3.689,3.689,0,0,0,799.364,732.966Z" fill="#595757"/>
      <path id="Path_16" data-name="Path 16" d="M868.678,736.2l-11.961,27.216a1.968,1.968,0,0,1-3.548.117L816.3,692.658a5.411,5.411,0,0,0-4.8-2.914H801.18a3.69,3.69,0,0,0-3.273,5.392l46.948,90.256a5.414,5.414,0,0,1,.154,4.674l-14.663,33.379a3.689,3.689,0,0,0,3.378,5.173h10.63a5.412,5.412,0,0,0,4.954-3.235l38.323-87.244a3.689,3.689,0,0,0-3.378-5.173H873.632A5.413,5.413,0,0,0,868.678,736.2Z" fill="#595757"/>
    </g>
    <g id="Group_4" data-name="Group 4">
      <path id="Path_17" data-name="Path 17" d="M915.959,865.085a.451.451,0,0,1-.51.51h-3.783a.451.451,0,0,1-.51-.51V841.958a.451.451,0,0,1,.51-.51h3.783a.451.451,0,0,1,.51.51Z" fill="#595757"/>
      <path id="Path_18" data-name="Path 18" d="M925.991,850.5a6.971,6.971,0,0,1,5.314-2.125c4.8,0,6.93,3.57,6.93,7.609v9.1a.451.451,0,0,1-.51.51h-3.784a.451.451,0,0,1-.51-.51v-8.5c0-2.083-.255-3.825-3.274-3.825-2.168,0-3.018,1.742-3.018,3.825v8.5a.451.451,0,0,1-.51.51h-3.784a.451.451,0,0,1-.51-.51V849.1a.451.451,0,0,1,.51-.51h2.339c.255,0,.467.17.595.51Z" fill="#595757"/>
      <path id="Path_19" data-name="Path 19" d="M954.94,860.621a1.241,1.241,0,0,1,.638-.255.385.385,0,0,1,.3.127l1.828,2.3a.518.518,0,0,1,.17.382.768.768,0,0,1-.127.469c-1.658,1.827-3.911,2.167-6.164,2.167a8.918,8.918,0,0,1-8.885-8.8,8.774,8.774,0,0,1,8.885-8.63c2.253,0,4.676.51,6.207,2a.862.862,0,0,1,.127.467.521.521,0,0,1-.17.383l-1.871,2.466a.385.385,0,0,1-.3.127,1.241,1.241,0,0,1-.638-.255,5.955,5.955,0,0,0-3.4-.723,3.929,3.929,0,0,0-4.038,4.209,4.239,4.239,0,0,0,4.038,4.506A4.752,4.752,0,0,0,954.94,860.621Z" fill="#595757"/>
      <path id="Path_20" data-name="Path 20" d="M965.142,860.706a2.551,2.551,0,1,1-2.551,2.551A2.456,2.456,0,0,1,965.142,860.706Z" fill="#595757"/>
      <path id="Path_21" data-name="Path 21" d="M980.36,852.757v4.888c0,3.231.127,3.911,1.615,3.911a4.766,4.766,0,0,0,1.318-.085c.043-.042.17-.042.3-.042a.563.563,0,0,1,.467.34l.68,2.891c.043.042.043.169.043.3a.56.56,0,0,1-.255.425,7.01,7.01,0,0,1-3.188.425c-3.656,0-5.782-1.615-5.782-7.227v-5.823h-2.891a.451.451,0,0,1-.51-.511v-3.358a.451.451,0,0,1,.51-.51h2.891v-6.42a.451.451,0,0,1,.51-.51h3.784a.451.451,0,0,1,.51.51v6.42h3.656a.451.451,0,0,1,.51.51v3.358a.452.452,0,0,1-.51.511Z" fill="#595757"/>
      <path id="Path_22" data-name="Path 22" d="M1004.122,858.538H993.069c0,2.848,2.764,3.273,4,3.273a6.921,6.921,0,0,0,4.039-1.147,1.235,1.235,0,0,1,.638-.256.386.386,0,0,1,.3.128l1.276,2.126a.563.563,0,0,1,.127.425.762.762,0,0,1-.127.467c-1.488,1.871-3.954,2.253-6.207,2.253-4.889,0-8.885-2.593-8.885-8.587,0-4.719,2.423-8.842,8.2-8.842,4.634,0,8.247,3.018,8.247,8.459,0,.6-.043.468-.043,1.191A.451.451,0,0,1,1004.122,858.538Zm-11.053-3.019H1000c0-2.04-2.211-2.678-3.486-2.678C995.2,852.841,993.069,853.479,993.069,855.519Z" fill="#595757"/>
      <path id="Path_23" data-name="Path 23" d="M1019,863.767c-1.4,2.083-4.166,2.04-4.634,2.04-1.87,0-6.079-.552-6.079-5.483,0-3.7,2.466-5.4,5.995-5.4a7.051,7.051,0,0,1,3.868.935c0-2.21-.85-3.1-3.358-3.1a12.442,12.442,0,0,0-3.741.467c-.043.042-.085.042-.17.042-.128,0-.3-.042-.425-.34l-1.021-2.508a1.289,1.289,0,0,1-.127-.468.843.843,0,0,1,.085-.382,13.731,13.731,0,0,1,5.654-1.19c5.569,0,7.95,2.89,7.95,7.694v9.013a.451.451,0,0,1-.511.51h-2.593a.677.677,0,0,1-.68-.51Zm-.807-2.891V859.6c-.383-.638-.808-1.106-2.509-1.106-2.168,0-3.06.6-3.06,1.488,0,1.318,1.105,1.871,2.933,1.871A3.952,3.952,0,0,0,1018.192,860.876Z" fill="#595757"/>
      <path id="Path_24" data-name="Path 24" d="M1051.676,855.6v9.481a.451.451,0,0,1-.51.51h-3.783a.451.451,0,0,1-.511-.51v-9.14c0-2.126-.68-3.188-2-3.188a2.354,2.354,0,0,0-2.381,2.082,10.253,10.253,0,0,1,.043,1.148v9.1a.451.451,0,0,1-.51.51h-3.784a.451.451,0,0,1-.51-.51v-8.5c0-2.083-.51-3.825-2-3.825-1.7,0-2.423,1.742-2.423,3.825v8.5a.451.451,0,0,1-.51.51h-3.784a.451.451,0,0,1-.51-.51V849.1a.451.451,0,0,1,.51-.51h2.3c.255,0,.467.17.595.51l.255,1.4a5.6,5.6,0,0,1,8.885.127,5.458,5.458,0,0,1,4.931-2.252C1049.465,848.378,1051.676,851.523,1051.676,855.6Z" fill="#595757"/>
      <path id="Path_25" data-name="Path 25" d="M1056.284,863.767a.258.258,0,0,1,.042-.17l.893-2.891c.042-.085.128-.128.3-.128a.315.315,0,0,1,.212.043,11.374,11.374,0,0,0,4.974,1.233c.68,0,2.253-.213,2.253-1.063,0-2.3-8.545-.808-8.545-7.354,0-3.444,2.976-5.059,6.845-5.059a14.85,14.85,0,0,1,5.144,1.02.931.931,0,0,1,.255.3c0,.128,0,.17-.043.213l-.893,3.146a.336.336,0,0,1-.34.212.868.868,0,0,0-.212-.042,15.307,15.307,0,0,0-4.124-.595c-1.7,0-1.828.425-1.828.977,0,2,8.545,1.446,8.545,6.8,0,4.124-3.741,5.4-7.015,5.4a10.989,10.989,0,0,1-6.249-1.658A.53.53,0,0,1,1056.284,863.767Z" fill="#595757"/>
    </g>
  </g>
</svg>
